<?xml version="1.0" encoding="utf-8"?>
<!-- Generator: Adobe Illustrator 24.1.2, SVG Export Plug-In . SVG Version: 6.00 Build 0)  -->
<svg version="1.1" id="Camada_2" xmlns="http://www.w3.org/2000/svg" xmlns:xlink="http://www.w3.org/1999/xlink" x="0px" y="0px"
	 viewBox="0 0 1000 1000" style="enable-background:new 0 0 1000 1000;" xml:space="preserve">
<style type="text/css">
	.st0{fill:#009640;}
</style>
<path class="st0" d="M-534.99-564.56V-491c54.33,70.27,166.99,212.14,296.6,132.82c-133.7,144.08-296.6-100.68-296.6-100.68v273.31
	H-167v-168.53c-201.19,311.52-335.54-33.96-335.54-33.96s180.61,276.96,314.35,12.78c0,0-289.68-77.68-324.08-169.84
	c0,0,184.97-6.49,241.43,25.31c0,0-173.79-20.96-182.87,4.35c0,0,2.45,31.36,286.71,114.43v-163.56H-534.99z"/>
<text transform="matrix(1 0 0 1 -53.8574 -318.7331)" style="font-family:'AtkinsonHyperlegible-Regular'; font-size:192.2228px;">Henrique de Almeida</text>
</svg>
